<svg width="233" height="13" viewBox="0 0 233 13" fill="none" xmlns="http://www.w3.org/2000/svg">
<path d="M5.47297 8.368C4.57697 8.368 3.91697 8.128 3.49297 7.648C3.06897 7.168 2.85697 6.512 2.85697 5.68C2.85697 4.84 3.08897 4.184 3.55297 3.712C4.02497 3.232 4.65697 2.992 5.44897 2.992C5.73697 2.992 6.00497 3.02 6.25297 3.076C6.50897 3.124 6.74497 3.204 6.96097 3.316L6.66097 3.928C6.47697 3.84 6.28097 3.776 6.07297 3.736C5.87297 3.688 5.66097 3.664 5.43697 3.664C4.90897 3.664 4.49297 3.84 4.18897 4.192C3.88497 4.544 3.73297 5.044 3.73297 5.692C3.73297 7.028 4.32097 7.696 5.49697 7.696C5.74497 7.696 5.97297 7.68 6.18097 7.648C6.38897 7.616 6.58097 7.568 6.75697 7.504V8.176C6.58097 8.232 6.38497 8.28 6.16897 8.32C5.96097 8.352 5.72897 8.368 5.47297 8.368ZM5.29297 10.66C4.61297 10.66 3.97297 10.532 3.37297 10.276C2.77297 10.02 2.24497 9.668 1.78897 9.22C1.34097 8.764 0.988969 8.236 0.732969 7.636C0.476969 7.036 0.348969 6.396 0.348969 5.716C0.348969 5.028 0.476969 4.388 0.732969 3.796C0.988969 3.196 1.34097 2.672 1.78897 2.224C2.24497 1.768 2.77297 1.412 3.37297 1.156C3.97297 0.899999 4.61297 0.771999 5.29297 0.771999C5.98097 0.771999 6.62097 0.899999 7.21297 1.156C7.81297 1.412 8.33697 1.768 8.78497 2.224C9.24097 2.672 9.59697 3.196 9.85297 3.796C10.109 4.388 10.237 5.028 10.237 5.716C10.237 6.396 10.109 7.036 9.85297 7.636C9.59697 8.236 9.24097 8.764 8.78497 9.22C8.33697 9.668 7.81297 10.02 7.21297 10.276C6.62097 10.532 5.98097 10.66 5.29297 10.66ZM5.29297 9.988C5.88497 9.988 6.43697 9.88 6.94897 9.664C7.46897 9.44 7.92497 9.132 8.31697 8.74C8.70897 8.348 9.01297 7.896 9.22897 7.384C9.45297 6.864 9.56497 6.308 9.56497 5.716C9.56497 5.124 9.45297 4.572 9.22897 4.06C9.01297 3.54 8.70897 3.084 8.31697 2.692C7.92497 2.3 7.46897 1.996 6.94897 1.78C6.43697 1.556 5.88497 1.444 5.29297 1.444C4.70097 1.444 4.14497 1.556 3.62497 1.78C3.11297 1.996 2.66097 2.3 2.26897 2.692C1.87697 3.084 1.56897 3.54 1.34497 4.06C1.12897 4.572 1.02097 5.124 1.02097 5.716C1.02097 6.308 1.12897 6.864 1.34497 7.384C1.56897 7.896 1.87697 8.348 2.26897 8.74C2.66097 9.132 3.11297 9.44 3.62497 9.664C4.14497 9.88 4.70097 9.988 5.29297 9.988ZM22.8948 2.08V10H21.7068L18.3948 4.696L17.5548 3.208H17.5428L17.5908 4.408V10H16.6788V2.08H17.8668L21.1668 7.36L22.0188 8.884H22.0308L21.9828 7.672V2.08H22.8948ZM31.0353 2.98H26.4513V5.536H30.0273V6.436H26.4513V10H25.4913V2.08H31.0353V2.98ZM38.3835 2.08V2.98H35.6235V10H34.6635V2.98H31.9035V2.08H38.3835ZM51.4754 2.08V10H50.5634V5.02L50.6714 2.932H50.6594L48.0554 10H47.2394L44.6354 2.932H44.6234L44.7314 5.02V10H43.8194V2.08H45.2954L47.0354 6.892L47.6354 8.872H47.6594L48.2714 6.904L49.9994 2.08H51.4754ZM57.3153 6.124C57.3153 5.676 57.1953 5.332 56.9553 5.092C56.7153 4.844 56.3753 4.72 55.9353 4.72C55.5193 4.72 55.1673 4.812 54.8793 4.996C54.5913 5.172 54.3793 5.46 54.2433 5.86L53.4633 5.38C53.6233 4.932 53.9193 4.572 54.3513 4.3C54.7833 4.02 55.3193 3.88 55.9593 3.88C56.3913 3.88 56.7833 3.956 57.1353 4.108C57.4873 4.252 57.7633 4.476 57.9633 4.78C58.1713 5.076 58.2753 5.46 58.2753 5.932V8.836C58.2753 9.124 58.4273 9.268 58.7313 9.268C58.8833 9.268 59.0313 9.248 59.1753 9.208L59.1273 9.964C58.9673 10.044 58.7593 10.084 58.5033 10.084C58.2713 10.084 58.0633 10.04 57.8793 9.952C57.6953 9.864 57.5513 9.732 57.4473 9.556C57.3433 9.372 57.2913 9.144 57.2913 8.872V8.752L57.5313 8.788C57.4353 9.1 57.2713 9.356 57.0393 9.556C56.8073 9.748 56.5473 9.892 56.2593 9.988C55.9713 10.076 55.6873 10.12 55.4073 10.12C55.0553 10.12 54.7273 10.06 54.4233 9.94C54.1193 9.82 53.8753 9.64 53.6913 9.4C53.5153 9.152 53.4273 8.848 53.4273 8.488C53.4273 8.04 53.5753 7.672 53.8713 7.384C54.1753 7.088 54.5953 6.888 55.1313 6.784L57.5073 6.316V7.108L55.5753 7.504C55.1833 7.584 54.8913 7.696 54.6993 7.84C54.5073 7.984 54.4113 8.184 54.4113 8.44C54.4113 8.688 54.5073 8.892 54.6993 9.052C54.8993 9.204 55.1793 9.28 55.5393 9.28C55.7713 9.28 55.9913 9.252 56.1993 9.196C56.4153 9.132 56.6073 9.04 56.7753 8.92C56.9433 8.792 57.0753 8.636 57.1713 8.452C57.2673 8.26 57.3153 8.036 57.3153 7.78V6.124ZM60.6082 10V4H61.3882L61.5202 4.984C61.6882 4.616 61.9322 4.34 62.2522 4.156C62.5802 3.972 62.9762 3.88 63.4402 3.88C63.5442 3.88 63.6562 3.888 63.7762 3.904C63.9042 3.92 64.0122 3.952 64.1002 4L63.9322 4.876C63.8442 4.844 63.7482 4.82 63.6442 4.804C63.5402 4.788 63.3922 4.78 63.2002 4.78C62.9522 4.78 62.7002 4.852 62.4442 4.996C62.1962 5.14 61.9882 5.36 61.8202 5.656C61.6522 5.944 61.5682 6.312 61.5682 6.76V10H60.6082ZM70.7746 4L68.1826 6.592L67.9546 6.82L65.9866 8.788V7.588L69.5626 4H70.7746ZM66.4666 1.24V10H65.5066V1.24H66.4666ZM68.2666 6.1L70.9186 10H69.7546L67.4626 6.64L68.2666 6.1ZM74.6123 10.12C74.0443 10.12 73.5363 9.996 73.0883 9.748C72.6483 9.5 72.3043 9.144 72.0563 8.68C71.8083 8.208 71.6843 7.648 71.6843 7C71.6843 6.352 71.8083 5.796 72.0563 5.332C72.3043 4.86 72.6443 4.5 73.0763 4.252C73.5083 4.004 74.0003 3.88 74.5523 3.88C75.1123 3.88 75.5883 4 75.9803 4.24C76.3803 4.48 76.6843 4.808 76.8923 5.224C77.1003 5.632 77.2043 6.092 77.2043 6.604C77.2043 6.74 77.2003 6.864 77.1923 6.976C77.1843 7.088 77.1723 7.188 77.1563 7.276H72.3083V6.424H76.7363L76.2443 6.52C76.2443 5.944 76.0843 5.5 75.7643 5.188C75.4523 4.876 75.0403 4.72 74.5283 4.72C74.1363 4.72 73.7963 4.812 73.5083 4.996C73.2283 5.172 73.0083 5.432 72.8483 5.776C72.6963 6.112 72.6203 6.52 72.6203 7C72.6203 7.472 72.7003 7.88 72.8603 8.224C73.0203 8.568 73.2443 8.832 73.5323 9.016C73.8283 9.192 74.1803 9.28 74.5883 9.28C75.0283 9.28 75.3843 9.196 75.6563 9.028C75.9363 8.86 76.1603 8.632 76.3283 8.344L77.0843 8.788C76.9323 9.06 76.7363 9.296 76.4963 9.496C76.2643 9.696 75.9883 9.852 75.6683 9.964C75.3563 10.068 75.0043 10.12 74.6123 10.12ZM80.2703 2.296V8.344C80.2703 8.64 80.3543 8.86 80.5223 9.004C80.6903 9.148 80.9063 9.22 81.1703 9.22C81.4023 9.22 81.6023 9.18 81.7703 9.1C81.9383 9.02 82.0903 8.912 82.2263 8.776L82.5623 9.58C82.3783 9.748 82.1583 9.88 81.9023 9.976C81.6543 10.072 81.3663 10.12 81.0383 10.12C80.7343 10.12 80.4503 10.068 80.1863 9.964C79.9223 9.852 79.7103 9.68 79.5503 9.448C79.3983 9.208 79.3183 8.896 79.3103 8.512V2.56L80.2703 2.296ZM82.4543 4V4.828H78.1103V4H82.4543ZM84.3616 8.56C84.5936 8.56 84.7816 8.632 84.9256 8.776C85.0696 8.92 85.1416 9.108 85.1416 9.34C85.1416 9.572 85.0696 9.76 84.9256 9.904C84.7816 10.048 84.5936 10.12 84.3616 10.12C84.1296 10.12 83.9416 10.048 83.7976 9.904C83.6536 9.76 83.5816 9.572 83.5816 9.34C83.5816 9.108 83.6536 8.92 83.7976 8.776C83.9416 8.632 84.1296 8.56 84.3616 8.56ZM97.399 2.08V7.048C97.399 8.064 97.131 8.832 96.595 9.352C96.059 9.864 95.291 10.12 94.291 10.12C93.299 10.12 92.531 9.864 91.987 9.352C91.451 8.832 91.183 8.064 91.183 7.048V2.08H92.143V6.808C92.143 7.632 92.315 8.24 92.659 8.632C93.011 9.024 93.555 9.22 94.291 9.22C95.027 9.22 95.567 9.024 95.911 8.632C96.263 8.24 96.439 7.632 96.439 6.808V2.08H97.399ZM101.71 10.12C101.126 10.12 100.586 9.996 100.09 9.748C99.6016 9.5 99.2256 9.148 98.9616 8.692L99.7776 8.104C99.9536 8.472 100.21 8.76 100.546 8.968C100.89 9.176 101.302 9.28 101.782 9.28C102.206 9.28 102.538 9.2 102.778 9.04C103.018 8.872 103.138 8.656 103.138 8.392C103.138 8.224 103.082 8.072 102.97 7.936C102.866 7.792 102.662 7.688 102.358 7.624L100.918 7.324C100.334 7.204 99.9136 7.004 99.6576 6.724C99.4096 6.444 99.2856 6.096 99.2856 5.68C99.2856 5.352 99.3776 5.052 99.5616 4.78C99.7536 4.508 100.022 4.292 100.366 4.132C100.718 3.964 101.13 3.88 101.602 3.88C102.194 3.88 102.694 3.996 103.102 4.228C103.51 4.46 103.814 4.788 104.014 5.212L103.21 5.74C103.074 5.388 102.854 5.132 102.55 4.972C102.246 4.804 101.93 4.72 101.602 4.72C101.314 4.72 101.066 4.76 100.858 4.84C100.658 4.92 100.502 5.032 100.39 5.176C100.286 5.312 100.234 5.468 100.234 5.644C100.234 5.82 100.294 5.984 100.414 6.136C100.534 6.28 100.758 6.384 101.086 6.448L102.586 6.76C103.146 6.872 103.538 7.056 103.762 7.312C103.986 7.568 104.098 7.88 104.098 8.248C104.098 8.624 103.998 8.956 103.798 9.244C103.598 9.524 103.318 9.74 102.958 9.892C102.598 10.044 102.182 10.12 101.71 10.12ZM108.386 10.12C107.818 10.12 107.31 9.996 106.862 9.748C106.422 9.5 106.078 9.144 105.83 8.68C105.582 8.208 105.458 7.648 105.458 7C105.458 6.352 105.582 5.796 105.83 5.332C106.078 4.86 106.418 4.5 106.85 4.252C107.282 4.004 107.774 3.88 108.326 3.88C108.886 3.88 109.362 4 109.754 4.24C110.154 4.48 110.458 4.808 110.666 5.224C110.874 5.632 110.978 6.092 110.978 6.604C110.978 6.74 110.974 6.864 110.966 6.976C110.958 7.088 110.946 7.188 110.93 7.276H106.082V6.424H110.51L110.018 6.52C110.018 5.944 109.858 5.5 109.538 5.188C109.226 4.876 108.814 4.72 108.302 4.72C107.91 4.72 107.57 4.812 107.282 4.996C107.002 5.172 106.782 5.432 106.622 5.776C106.47 6.112 106.394 6.52 106.394 7C106.394 7.472 106.474 7.88 106.634 8.224C106.794 8.568 107.018 8.832 107.306 9.016C107.602 9.192 107.954 9.28 108.362 9.28C108.802 9.28 109.158 9.196 109.43 9.028C109.71 8.86 109.934 8.632 110.102 8.344L110.858 8.788C110.706 9.06 110.51 9.296 110.27 9.496C110.038 9.696 109.762 9.852 109.442 9.964C109.13 10.068 108.778 10.12 108.386 10.12ZM118.075 2.296V8.344C118.075 8.64 118.159 8.86 118.327 9.004C118.495 9.148 118.711 9.22 118.975 9.22C119.207 9.22 119.407 9.18 119.575 9.1C119.743 9.02 119.895 8.912 120.031 8.776L120.367 9.58C120.183 9.748 119.963 9.88 119.707 9.976C119.459 10.072 119.171 10.12 118.843 10.12C118.539 10.12 118.255 10.068 117.991 9.964C117.727 9.852 117.515 9.68 117.355 9.448C117.203 9.208 117.123 8.896 117.115 8.512V2.56L118.075 2.296ZM120.259 4V4.828H115.915V4H120.259ZM121.686 10V1.24H122.646V4.9C122.854 4.54 123.13 4.28 123.474 4.12C123.818 3.96 124.194 3.88 124.602 3.88C125.034 3.88 125.426 3.964 125.778 4.132C126.13 4.292 126.41 4.54 126.618 4.876C126.834 5.212 126.942 5.64 126.942 6.16V10H125.982V6.496C125.982 5.832 125.838 5.372 125.55 5.116C125.27 4.852 124.922 4.72 124.506 4.72C124.218 4.72 123.93 4.788 123.642 4.924C123.354 5.06 123.114 5.284 122.922 5.596C122.738 5.9 122.646 6.308 122.646 6.82V10H121.686ZM129.596 2.848C129.38 2.848 129.204 2.784 129.068 2.656C128.94 2.52 128.876 2.344 128.876 2.128C128.876 1.912 128.94 1.74 129.068 1.612C129.204 1.476 129.38 1.408 129.596 1.408C129.812 1.408 129.984 1.476 130.112 1.612C130.248 1.74 130.316 1.912 130.316 2.128C130.316 2.344 130.248 2.52 130.112 2.656C129.984 2.784 129.812 2.848 129.596 2.848ZM130.076 4V10H129.116V4H130.076ZM134.464 10.12C133.88 10.12 133.34 9.996 132.844 9.748C132.356 9.5 131.98 9.148 131.716 8.692L132.532 8.104C132.708 8.472 132.964 8.76 133.3 8.968C133.644 9.176 134.056 9.28 134.536 9.28C134.96 9.28 135.292 9.2 135.532 9.04C135.772 8.872 135.892 8.656 135.892 8.392C135.892 8.224 135.836 8.072 135.724 7.936C135.62 7.792 135.416 7.688 135.112 7.624L133.672 7.324C133.088 7.204 132.668 7.004 132.412 6.724C132.164 6.444 132.04 6.096 132.04 5.68C132.04 5.352 132.132 5.052 132.316 4.78C132.508 4.508 132.776 4.292 133.12 4.132C133.472 3.964 133.884 3.88 134.355 3.88C134.948 3.88 135.448 3.996 135.856 4.228C136.264 4.46 136.568 4.788 136.768 5.212L135.964 5.74C135.828 5.388 135.608 5.132 135.304 4.972C135 4.804 134.684 4.72 134.355 4.72C134.068 4.72 133.82 4.76 133.612 4.84C133.412 4.92 133.256 5.032 133.144 5.176C133.04 5.312 132.988 5.468 132.988 5.644C132.988 5.82 133.048 5.984 133.168 6.136C133.288 6.28 133.512 6.384 133.84 6.448L135.34 6.76C135.9 6.872 136.292 7.056 136.516 7.312C136.74 7.568 136.852 7.88 136.852 8.248C136.852 8.624 136.752 8.956 136.552 9.244C136.352 9.524 136.072 9.74 135.712 9.892C135.352 10.044 134.936 10.12 134.464 10.12ZM143.903 2.296V8.344C143.903 8.64 143.987 8.86 144.155 9.004C144.323 9.148 144.539 9.22 144.803 9.22C145.035 9.22 145.235 9.18 145.403 9.1C145.571 9.02 145.723 8.912 145.859 8.776L146.195 9.58C146.011 9.748 145.791 9.88 145.535 9.976C145.287 10.072 144.999 10.12 144.671 10.12C144.367 10.12 144.083 10.068 143.819 9.964C143.555 9.852 143.343 9.68 143.183 9.448C143.031 9.208 142.951 8.896 142.943 8.512V2.56L143.903 2.296ZM146.087 4V4.828H141.743V4H146.087ZM150.022 10.12C149.454 10.12 148.946 9.996 148.498 9.748C148.058 9.5 147.714 9.144 147.466 8.68C147.218 8.208 147.094 7.648 147.094 7C147.094 6.352 147.218 5.796 147.466 5.332C147.714 4.86 148.054 4.5 148.486 4.252C148.918 4.004 149.41 3.88 149.962 3.88C150.522 3.88 150.998 4 151.39 4.24C151.79 4.48 152.094 4.808 152.302 5.224C152.51 5.632 152.614 6.092 152.614 6.604C152.614 6.74 152.61 6.864 152.602 6.976C152.594 7.088 152.582 7.188 152.566 7.276H147.718V6.424H152.146L151.654 6.52C151.654 5.944 151.494 5.5 151.174 5.188C150.862 4.876 150.45 4.72 149.938 4.72C149.546 4.72 149.206 4.812 148.918 4.996C148.638 5.172 148.418 5.432 148.258 5.776C148.106 6.112 148.03 6.52 148.03 7C148.03 7.472 148.11 7.88 148.27 8.224C148.43 8.568 148.654 8.832 148.942 9.016C149.238 9.192 149.59 9.28 149.998 9.28C150.438 9.28 150.794 9.196 151.066 9.028C151.346 8.86 151.57 8.632 151.738 8.344L152.494 8.788C152.342 9.06 152.146 9.296 151.906 9.496C151.674 9.696 151.398 9.852 151.078 9.964C150.766 10.068 150.414 10.12 150.022 10.12ZM154.44 10V4H155.28L155.34 4.936C155.556 4.568 155.836 4.3 156.18 4.132C156.532 3.964 156.892 3.88 157.26 3.88C157.684 3.88 158.084 3.976 158.46 4.168C158.836 4.36 159.124 4.656 159.324 5.056C159.452 4.784 159.632 4.564 159.864 4.396C160.096 4.22 160.348 4.092 160.62 4.012C160.9 3.924 161.164 3.88 161.412 3.88C161.796 3.88 162.16 3.96 162.504 4.12C162.856 4.28 163.144 4.528 163.368 4.864C163.592 5.2 163.704 5.632 163.704 6.16V10H162.744V6.256C162.744 5.712 162.608 5.32 162.336 5.08C162.064 4.84 161.728 4.72 161.328 4.72C161.016 4.72 160.724 4.796 160.452 4.948C160.18 5.1 159.96 5.324 159.792 5.62C159.632 5.916 159.552 6.28 159.552 6.712V10H158.592V6.256C158.592 5.712 158.456 5.32 158.184 5.08C157.912 4.84 157.576 4.72 157.176 4.72C156.912 4.72 156.64 4.792 156.36 4.936C156.088 5.072 155.86 5.292 155.676 5.596C155.492 5.9 155.4 6.3 155.4 6.796V10H154.44ZM165.878 12.52V4H166.718L166.802 5.464L166.67 5.296C166.774 5.016 166.93 4.772 167.138 4.564C167.346 4.348 167.598 4.18 167.894 4.06C168.19 3.94 168.51 3.88 168.854 3.88C169.342 3.88 169.79 4.004 170.198 4.252C170.614 4.5 170.946 4.856 171.194 5.32C171.442 5.784 171.566 6.344 171.566 7C171.566 7.648 171.438 8.208 171.182 8.68C170.934 9.144 170.602 9.5 170.186 9.748C169.77 9.996 169.314 10.12 168.818 10.12C168.322 10.12 167.886 10 167.51 9.76C167.142 9.512 166.878 9.2 166.718 8.824L166.838 8.644V12.52H165.878ZM168.722 9.28C169.314 9.28 169.774 9.072 170.102 8.656C170.438 8.24 170.606 7.688 170.606 7C170.606 6.312 170.442 5.76 170.114 5.344C169.794 4.928 169.342 4.72 168.758 4.72C168.374 4.72 168.038 4.816 167.75 5.008C167.462 5.192 167.238 5.456 167.078 5.8C166.918 6.136 166.838 6.536 166.838 7C166.838 7.456 166.914 7.856 167.066 8.2C167.226 8.544 167.446 8.812 167.726 9.004C168.014 9.188 168.346 9.28 168.722 9.28ZM174.313 1.24V8.476C174.313 8.78 174.369 8.992 174.481 9.112C174.593 9.224 174.773 9.28 175.021 9.28C175.181 9.28 175.313 9.268 175.417 9.244C175.521 9.22 175.661 9.176 175.837 9.112L175.681 9.952C175.553 10.008 175.413 10.048 175.261 10.072C175.109 10.104 174.953 10.12 174.793 10.12C174.305 10.12 173.941 9.988 173.701 9.724C173.469 9.46 173.353 9.056 173.353 8.512V1.24H174.313ZM180.573 6.124C180.573 5.676 180.453 5.332 180.213 5.092C179.973 4.844 179.633 4.72 179.193 4.72C178.777 4.72 178.425 4.812 178.137 4.996C177.849 5.172 177.637 5.46 177.501 5.86L176.721 5.38C176.881 4.932 177.177 4.572 177.609 4.3C178.041 4.02 178.577 3.88 179.217 3.88C179.649 3.88 180.041 3.956 180.393 4.108C180.745 4.252 181.021 4.476 181.221 4.78C181.429 5.076 181.533 5.46 181.533 5.932V8.836C181.533 9.124 181.685 9.268 181.989 9.268C182.141 9.268 182.289 9.248 182.433 9.208L182.385 9.964C182.225 10.044 182.017 10.084 181.761 10.084C181.529 10.084 181.321 10.04 181.137 9.952C180.953 9.864 180.809 9.732 180.705 9.556C180.601 9.372 180.549 9.144 180.549 8.872V8.752L180.789 8.788C180.693 9.1 180.529 9.356 180.297 9.556C180.065 9.748 179.805 9.892 179.517 9.988C179.229 10.076 178.945 10.12 178.665 10.12C178.313 10.12 177.985 10.06 177.681 9.94C177.377 9.82 177.133 9.64 176.949 9.4C176.773 9.152 176.685 8.848 176.685 8.488C176.685 8.04 176.833 7.672 177.129 7.384C177.433 7.088 177.853 6.888 178.389 6.784L180.765 6.316V7.108L178.833 7.504C178.441 7.584 178.149 7.696 177.957 7.84C177.765 7.984 177.669 8.184 177.669 8.44C177.669 8.688 177.765 8.892 177.957 9.052C178.157 9.204 178.437 9.28 178.797 9.28C179.029 9.28 179.249 9.252 179.457 9.196C179.673 9.132 179.865 9.04 180.033 8.92C180.201 8.792 180.333 8.636 180.429 8.452C180.525 8.26 180.573 8.036 180.573 7.78V6.124ZM185.048 2.296V8.344C185.048 8.64 185.132 8.86 185.3 9.004C185.468 9.148 185.684 9.22 185.948 9.22C186.18 9.22 186.38 9.18 186.548 9.1C186.716 9.02 186.868 8.912 187.004 8.776L187.34 9.58C187.156 9.748 186.936 9.88 186.68 9.976C186.432 10.072 186.144 10.12 185.816 10.12C185.512 10.12 185.228 10.068 184.964 9.964C184.7 9.852 184.488 9.68 184.328 9.448C184.176 9.208 184.096 8.896 184.088 8.512V2.56L185.048 2.296ZM187.232 4V4.828H182.888V4H187.232ZM191.167 10.12C190.599 10.12 190.091 9.996 189.643 9.748C189.203 9.5 188.859 9.144 188.611 8.68C188.363 8.208 188.239 7.648 188.239 7C188.239 6.352 188.363 5.796 188.611 5.332C188.859 4.86 189.199 4.5 189.631 4.252C190.063 4.004 190.555 3.88 191.107 3.88C191.667 3.88 192.143 4 192.535 4.24C192.935 4.48 193.239 4.808 193.447 5.224C193.655 5.632 193.759 6.092 193.759 6.604C193.759 6.74 193.755 6.864 193.747 6.976C193.739 7.088 193.727 7.188 193.711 7.276H188.863V6.424H193.291L192.799 6.52C192.799 5.944 192.639 5.5 192.319 5.188C192.007 4.876 191.595 4.72 191.083 4.72C190.691 4.72 190.351 4.812 190.063 4.996C189.783 5.172 189.563 5.432 189.403 5.776C189.251 6.112 189.175 6.52 189.175 7C189.175 7.472 189.255 7.88 189.415 8.224C189.575 8.568 189.799 8.832 190.087 9.016C190.383 9.192 190.735 9.28 191.143 9.28C191.583 9.28 191.939 9.196 192.211 9.028C192.491 8.86 192.715 8.632 192.883 8.344L193.639 8.788C193.487 9.06 193.291 9.296 193.051 9.496C192.819 9.696 192.543 9.852 192.223 9.964C191.911 10.068 191.559 10.12 191.167 10.12ZM201.888 1.18C202.096 1.18 202.292 1.204 202.476 1.252C202.66 1.3 202.804 1.368 202.908 1.456L202.656 2.236C202.56 2.172 202.456 2.128 202.344 2.104C202.232 2.072 202.108 2.056 201.972 2.056C201.628 2.056 201.36 2.14 201.168 2.308C200.976 2.468 200.88 2.728 200.88 3.088V4V4.312V10H199.92V2.992C199.92 2.728 199.96 2.484 200.04 2.26C200.12 2.036 200.24 1.844 200.4 1.684C200.568 1.524 200.776 1.4 201.024 1.312C201.272 1.224 201.56 1.18 201.888 1.18ZM202.884 4V4.828H198.72V4H202.884ZM204.163 10V4H204.943L205.075 4.984C205.243 4.616 205.487 4.34 205.807 4.156C206.135 3.972 206.531 3.88 206.995 3.88C207.099 3.88 207.211 3.888 207.331 3.904C207.459 3.92 207.567 3.952 207.655 4L207.487 4.876C207.399 4.844 207.303 4.82 207.199 4.804C207.095 4.788 206.947 4.78 206.755 4.78C206.507 4.78 206.255 4.852 205.999 4.996C205.751 5.14 205.543 5.36 205.375 5.656C205.207 5.944 205.123 6.312 205.123 6.76V10H204.163ZM211.382 10.12C210.814 10.12 210.306 9.996 209.858 9.748C209.418 9.5 209.074 9.144 208.826 8.68C208.578 8.208 208.454 7.648 208.454 7C208.454 6.352 208.578 5.796 208.826 5.332C209.074 4.86 209.414 4.5 209.846 4.252C210.278 4.004 210.77 3.88 211.322 3.88C211.882 3.88 212.358 4 212.75 4.24C213.15 4.48 213.454 4.808 213.662 5.224C213.87 5.632 213.974 6.092 213.974 6.604C213.974 6.74 213.97 6.864 213.962 6.976C213.954 7.088 213.942 7.188 213.926 7.276H209.078V6.424H213.506L213.014 6.52C213.014 5.944 212.854 5.5 212.534 5.188C212.222 4.876 211.81 4.72 211.298 4.72C210.906 4.72 210.566 4.812 210.278 4.996C209.998 5.172 209.778 5.432 209.618 5.776C209.466 6.112 209.39 6.52 209.39 7C209.39 7.472 209.47 7.88 209.63 8.224C209.79 8.568 210.014 8.832 210.302 9.016C210.598 9.192 210.95 9.28 211.358 9.28C211.798 9.28 212.154 9.196 212.426 9.028C212.706 8.86 212.93 8.632 213.098 8.344L213.854 8.788C213.702 9.06 213.506 9.296 213.266 9.496C213.034 9.696 212.758 9.852 212.438 9.964C212.126 10.068 211.774 10.12 211.382 10.12ZM218.308 10.12C217.74 10.12 217.232 9.996 216.784 9.748C216.344 9.5 216 9.144 215.752 8.68C215.504 8.208 215.38 7.648 215.38 7C215.38 6.352 215.504 5.796 215.752 5.332C216 4.86 216.34 4.5 216.772 4.252C217.204 4.004 217.696 3.88 218.248 3.88C218.808 3.88 219.284 4 219.676 4.24C220.076 4.48 220.38 4.808 220.588 5.224C220.796 5.632 220.9 6.092 220.9 6.604C220.9 6.74 220.896 6.864 220.888 6.976C220.88 7.088 220.868 7.188 220.852 7.276H216.004V6.424H220.432L219.94 6.52C219.94 5.944 219.78 5.5 219.46 5.188C219.148 4.876 218.736 4.72 218.224 4.72C217.832 4.72 217.492 4.812 217.204 4.996C216.924 5.172 216.704 5.432 216.544 5.776C216.392 6.112 216.316 6.52 216.316 7C216.316 7.472 216.396 7.88 216.556 8.224C216.716 8.568 216.94 8.832 217.228 9.016C217.524 9.192 217.876 9.28 218.284 9.28C218.724 9.28 219.08 9.196 219.352 9.028C219.632 8.86 219.856 8.632 220.024 8.344L220.78 8.788C220.628 9.06 220.432 9.296 220.192 9.496C219.96 9.696 219.684 9.852 219.364 9.964C219.052 10.068 218.7 10.12 218.308 10.12ZM223.637 1.24V8.476C223.637 8.78 223.693 8.992 223.805 9.112C223.917 9.224 224.097 9.28 224.345 9.28C224.505 9.28 224.637 9.268 224.741 9.244C224.845 9.22 224.985 9.176 225.161 9.112L225.005 9.952C224.877 10.008 224.737 10.048 224.585 10.072C224.433 10.104 224.277 10.12 224.117 10.12C223.629 10.12 223.265 9.988 223.025 9.724C222.793 9.46 222.677 9.056 222.677 8.512V1.24H223.637ZM231.021 4L228.201 11.008C228.049 11.4 227.881 11.708 227.697 11.932C227.521 12.164 227.321 12.328 227.097 12.424C226.881 12.528 226.629 12.58 226.341 12.58C226.069 12.58 225.817 12.54 225.585 12.46C225.361 12.388 225.161 12.288 224.985 12.16L225.249 11.32C225.409 11.464 225.577 11.568 225.753 11.632C225.937 11.704 226.117 11.74 226.293 11.74C226.501 11.74 226.697 11.676 226.881 11.548C227.065 11.42 227.233 11.16 227.385 10.768L227.697 9.988L227.097 8.56L225.189 4H226.281L227.781 7.912L228.153 8.98L228.585 7.792L229.989 4H231.021ZM231.866 8.56C232.098 8.56 232.286 8.632 232.43 8.776C232.574 8.92 232.646 9.108 232.646 9.34C232.646 9.572 232.574 9.76 232.43 9.904C232.286 10.048 232.098 10.12 231.866 10.12C231.634 10.12 231.446 10.048 231.302 9.904C231.158 9.76 231.086 9.572 231.086 9.34C231.086 9.108 231.158 8.92 231.302 8.776C231.446 8.632 231.634 8.56 231.866 8.56Z" fill="#CCCCCC"/>
</svg>
